<svg xmlns="http://www.w3.org/2000/svg" xmlns:svg="http://www.w3.org/2000/svg" id="svg2" width="600" height="500" version="1.1" viewBox="0 0 600 500" xml:space="preserve"><metadata id="metadata8"/><defs id="defs6"><filter id="filter4203" color-interpolation-filters="sRGB"><feFlood id="feFlood4205" flood-color="#484848" flood-opacity=".498" result="flood"/><feComposite id="feComposite4207" in="flood" in2="SourceGraphic" operator="in" result="composite1"/><feGaussianBlur id="feGaussianBlur4209" in="composite1" result="blur" stdDeviation="5"/><feOffset id="feOffset4211" dx="5" dy="-5" result="offset"/><feComposite id="feComposite4213" in="SourceGraphic" in2="offset" operator="over" result="composite2"/></filter></defs><g id="g10" transform="matrix(1.25,0,0,-1.25,0,499.99999)"><path id="path14" fill="#52ade5" fill-opacity="1" fill-rule="nonzero" stroke="none" d="m 400,286.592 c -14.716,-6.528 -30.534,-10.938 -47.132,-12.922 16.94,10.156 29.954,26.238 36.082,45.402 -15.858,-9.406 -33.42,-16.234 -52.114,-19.914 -14.968,15.95 -36.296,25.914 -59.9,25.914 -45.32,0 -82.0656,-36.742 -82.0656,-82.062 0,-6.432 0.7256,-12.696 2.125,-18.702 -68.2032,3.422 -128.6736,36.094 -169.1478,85.744 -7.0648,-12.12 -11.11166,-26.218 -11.11166,-41.258 0,-28.472 14.48746,-53.59 36.50866,-68.306 -13.4524,0.426 -26.107,4.118 -37.17038,10.264 -0.0078,-0.342 -0.0078,-0.684 -0.0078,-1.032 0,-39.7606 28.2882,-72.927 65.829,-80.4684 -6.8852,-1.875 -14.1352,-2.879 -21.6196,-2.879 -5.2882,0 -10.429,0.5156 -15.4406,1.4728 C 55.2782,95.2438 85.5852,71.5156 121.496,70.8562 93.4102,48.8438 58.0258,35.7242 19.57656,35.7242 12.95234,35.7242 6.41954,36.114 0,36.8718 36.3172,13.58828 79.454,0 125.7976,0 276.744,0 359.29,125.0476 359.29,233.494 c 0,3.558 -0.082,7.096 -0.24,10.616 16.036,11.572 29.948,26.024 40.95,42.482" filter="url(#filter4203)" transform="matrix(0.99998502,0,0,1.0252507,39.999401,33.328024)"/></g></svg>